# xmcd CD database file
#
# Track frame offsets:
#	150
#	17602
#	31080
#	47672
#	62162
#	79547
#	103277
#	124150
#	140895
#	166552
#
# Disc length: 2418 seconds
#
# Revision: 0
# Processed by: cddbd v1.5PL3 Copyright (c) Steve Scherf et al.
# Submitted via: CDex 1.51
#
DISCID=7c09700a
DTITLE=Annika Blennerhed - Reconnect
DYEAR=1996
DGENRE=Blues
TTITLE0=Sunshine
TTITLE1=We Look Away
TTITLE2=New Wintry Feeling
TTITLE3=Mind's Making
TTITLE4=The Raven's Wing
TTITLE5=A Pang
TTITLE6=I Believe I've Hit
TTITLE7=Morning Senses
TTITLE8=Strength
TTITLE9=Reconnect
EXTD=YEAR: 1996
EXTT0=
EXTT1=
EXTT2=
EXTT3=
EXTT4=
EXTT5=
EXTT6=
EXTT7=
EXTT8=
EXTT9=
PLAYORDER=
